<?xml version="1.0" standalone="no"?>
<!DOCTYPE svg PUBLIC "-//W3C//DTD SVG 20010904//EN"
 "http://www.w3.org/TR/2001/REC-SVG-20010904/DTD/svg10.dtd">
<svg version="1.0" xmlns="http://www.w3.org/2000/svg"
 width="300.000000pt" height="300.000000pt" viewBox="0 0 300.000000 300.000000"
 preserveAspectRatio="xMidYMid meet">
<metadata>
Created by potrace 1.11, written by Peter Selinger 2001-2013
</metadata>
<g transform="translate(0.000000,300.000000) scale(0.100000,-0.100000)"
fill="#000000" stroke="none">
<path d="M1333 2047 c-50 -22 -49 -110 1 -136 12 -6 15 -10 6 -10 -38 3 -68
-18 -76 -52 -26 -108 -35 -174 -26 -194 5 -11 10 -75 11 -140 2 -129 11 -155
56 -155 41 0 49 24 50 145 0 93 4 117 18 132 9 11 17 27 17 37 0 13 5 16 23
10 12 -4 28 -7 35 -7 6 0 12 -3 12 -6 0 -13 54 -4 64 11 15 24 0 46 -47 69
-41 20 -45 26 -56 75 -9 38 -18 55 -33 60 -18 5 -17 8 13 26 19 11 35 21 35
22 1 0 5 15 8 32 13 59 -54 108 -111 81z"/>
<path d="M1561 2031 c-23 -22 -27 -32 -23 -63 3 -31 10 -40 45 -57 31 -16 37
-22 24 -27 -9 -3 -22 -25 -29 -48 -16 -56 -25 -66 -62 -66 l-31 -1 28 -20 c15
-11 27 -30 27 -41 0 -17 5 -19 35 -15 19 3 34 2 33 -2 -2 -20 4 -41 15 -53 16
-18 19 -32 17 -100 -2 -49 -1 -112 2 -133 3 -27 35 -48 63 -41 36 9 45 41 43
164 -1 63 3 116 10 128 10 20 9 58 -4 94 -3 8 -8 33 -10 55 -8 58 -33 89 -80
96 -21 3 -31 7 -22 8 23 1 48 39 48 71 0 24 -30 68 -48 71 -39 7 -56 3 -81
-20z"/>
<path d="M786 1130 c-14 -63 -29 -128 -32 -144 -3 -16 -6 -34 -7 -40 -1 -6 8
-12 20 -14 23 -3 24 0 49 133 3 16 7 31 9 33 2 2 24 -37 48 -87 l43 -92 29 58
c15 32 35 74 43 93 l15 35 21 -85 c18 -73 24 -85 44 -88 24 -4 24 -3 8 63 -2
11 -17 72 -32 135 l-27 115 -18 -40 c-75 -161 -88 -188 -89 -175 -1 8 -23 60
-49 115 l-48 100 -27 -115z"/>
<path d="M1131 1230 c-5 -4 -7 -241 -2 -287 1 -9 24 -13 81 -13 79 0 80 0 80
26 0 22 -4 25 -27 24 -84 -6 -88 -4 -89 45 -1 49 -3 48 84 47 27 0 32 3 32 22
0 21 -5 23 -49 23 -60 0 -68 5 -67 40 2 27 4 28 59 31 49 3 57 6 57 22 0 12
-7 20 -17 21 -71 4 -136 3 -142 -1z"/>
<path d="M1349 1230 c-1 -3 -2 -71 -3 -152 l-1 -148 82 0 c82 0 83 0 83 26 0
24 -3 25 -42 24 -73 -3 -73 -3 -73 39 0 22 3 43 7 46 4 4 30 7 58 6 46 -1 50
1 50 23 0 22 -4 24 -48 23 -68 -1 -74 5 -63 66 0 4 25 7 55 7 45 0 54 3 59 20
4 14 0 20 -11 21 -84 4 -152 4 -153 -1z"/>
<path d="M1535 1222 c-10 -27 -4 -32 35 -32 36 0 40 -3 41 -25 0 -14 0 -72 1
-130 0 -104 0 -105 24 -105 23 0 24 3 25 73 1 39 1 98 0 130 l-1 57 41 0 c36
0 40 2 37 22 -3 21 -8 22 -100 22 -73 1 -99 -2 -103 -12z"/>
<path d="M1788 1233 c-15 -4 -17 -18 -17 -106 1 -119 11 -159 45 -182 56 -36
158 -19 185 32 8 14 13 67 14 137 1 103 -1 115 -17 119 -27 7 -31 -6 -32 -119
-2 -87 -5 -106 -21 -124 -16 -18 -28 -21 -59 -17 -21 3 -44 10 -50 17 -6 6
-12 57 -14 123 -2 62 -7 115 -10 118 -4 3 -15 4 -24 2z"/>
<path d="M2092 1232 c-9 -3 -12 -43 -12 -153 l0 -149 23 0 c21 0 24 5 24 48 2
93 -1 88 45 91 24 1 50 9 60 18 37 33 31 110 -11 132 -21 12 -108 20 -129 13z
m104 -59 c18 -41 5 -63 -37 -63 -27 0 -29 3 -29 40 0 37 2 40 29 40 18 0 32
-7 37 -17z"/>
</g>
</svg>
